<svg xmlns="http://www.w3.org/2000/svg" width="115.969" height="115.969" viewBox="0 0 115.969 115.969">
  <path id="Icon_material-broken_image" data-name="Icon material-broken_image" d="M120.469,17.385V59.843L101.141,40.45,75.37,66.286,49.6,40.515,23.828,66.286,4.5,46.893V17.385A12.923,12.923,0,0,1,17.385,4.5h90.2A12.923,12.923,0,0,1,120.469,17.385ZM101.141,58.748,120.469,78.14v29.443a12.923,12.923,0,0,1-12.885,12.885h-90.2A12.923,12.923,0,0,1,4.5,107.583V65.19L23.828,84.454,49.6,58.683,75.37,84.454Z" transform="translate(-4.5 -4.5)" fill="#b48406"/>
</svg>